<svg width="48" height="48" viewBox="0 0 48 48" fill="none" xmlns="http://www.w3.org/2000/svg">
<circle cx="24" cy="24" r="22" fill="none" stroke="white" stroke-width="4"/>
<path d="M13.5005 17.6671C13.5005 17.382 13.6138 17.1084 13.8154 16.9068C14.017 16.7052 14.2904 16.5919 14.5758 16.5919H31.3147L26.6365 12.9222C26.3341 12.6848 26.1815 12.3042 26.236 11.9235C26.2902 11.5431 26.5437 11.2206 26.9003 11.0773C27.2572 10.9343 27.663 10.9924 27.9654 11.2297L35.0889 16.8208C35.3486 17.0248 35.5 17.3366 35.5 17.6666C35.5 17.9966 35.3486 18.3084 35.0889 18.5122L27.9654 24.1033C27.7413 24.2797 27.4561 24.3596 27.173 24.3256C26.8897 24.2915 26.6315 24.1465 26.4553 23.9221C26.2792 23.6979 26.1992 23.4128 26.2331 23.1296C26.2672 22.8464 26.4121 22.5884 26.6365 22.412L31.3147 18.7423H14.5757C14.2904 18.7423 14.017 18.629 13.8154 18.4274C13.6138 18.2258 13.5005 17.9522 13.5005 17.6671ZM34.4242 29.0644H17.6853L22.3634 25.3914C22.6656 25.154 22.8183 24.7736 22.7635 24.3932C22.7091 24.0128 22.4558 23.6905 22.0992 23.5474C21.7426 23.4046 21.3368 23.4627 21.0346 23.7001L13.9111 29.2912C13.6514 29.4952 13.5 29.807 13.5 30.137C13.5 30.467 13.6514 30.7787 13.9111 30.9825L21.0346 36.5737C21.337 36.811 21.7428 36.8691 22.0997 36.7261C22.4564 36.583 22.7098 36.2605 22.764 35.8798C22.8185 35.4994 22.6659 35.1188 22.3635 34.8814L17.6853 31.2149H34.4243C34.8085 31.2149 35.1634 31.0099 35.3554 30.6773C35.5475 30.3446 35.5475 29.9347 35.3554 29.602C35.1634 29.2694 34.8085 29.0644 34.4242 29.0644Z" fill="white"/>
</svg>
