<svg width="48" height="48" viewBox="0 0 48 48" fill="none" xmlns="http://www.w3.org/2000/svg">
<circle cx="24" cy="24" r="22" fill="none" stroke="white" stroke-width="4"/>
<path d="M19.7633 33.4742C19.2173 33.4742 18.6569 33.2585 18.2404 32.842C17.3925 31.9942 17.3925 30.6296 18.2404 29.7962L31.4007 16.6359C32.2485 15.788 33.6131 15.788 34.4465 16.6359C35.2944 17.4837 35.2944 18.8483 34.4465 19.6817L21.2862 32.842C20.8697 33.2585 20.3093 33.4742 19.7633 33.4742Z" fill="white"/>
<path d="M19.4891 33.2012C18.9431 33.2012 18.3827 32.9856 17.9662 32.5691L12.6359 27.2388C11.788 26.3909 11.788 25.0263 12.6359 24.1929C13.4693 23.3451 14.8483 23.3451 15.6817 24.1929L21.012 29.5232C21.8599 30.3711 21.8599 31.7357 21.012 32.5691C20.5955 32.9856 20.0351 33.2012 19.4891 33.2012Z" fill="white"/>
</svg>
