<svg width="48" height="48" viewBox="0 0 48 48" fill="none" xmlns="http://www.w3.org/2000/svg">
<circle cx="24" cy="24" r="22" fill="none" stroke="white" stroke-width="4"/>
<path fill-rule="evenodd" clip-rule="evenodd" d="M13.5 20.3505C13.5795 14.5581 18.3374 9.92568 24.1299 10.0009C29.9224 9.92568 34.6802 14.5581 34.7598 20.3505C34.7573 22.5998 34.0097 24.7849 32.6338 26.5642L24.1299 38.9915L15.626 26.5642C14.2501 24.7849 13.5024 22.5998 13.5 20.3505ZM32.8271 20.3505C32.7371 15.6301 28.8508 11.8689 24.1299 11.9336C19.409 11.8689 15.5227 15.6301 15.4327 20.3505C15.4313 22.208 16.0618 24.0108 17.2205 25.4625L24.1299 35.5706L31.0973 25.3852C32.2188 23.9466 32.8276 22.1746 32.8271 20.3505ZM24.1374 17.7308C25.7385 17.7308 27.0365 19.0288 27.0365 20.6299C27.0365 22.231 25.7385 23.5289 24.1374 23.5289C22.5363 23.5289 21.2384 22.231 21.2384 20.6299C21.2384 19.0288 22.5363 17.7308 24.1374 17.7308ZM19.3057 20.6299C19.3057 17.9614 21.4689 15.7981 24.1374 15.7981C26.8059 15.7981 28.9692 17.9614 28.9692 20.6299C28.9692 23.2984 26.8059 25.4616 24.1374 25.4616C21.4689 25.4616 19.3057 23.2984 19.3057 20.6299Z" fill="white"/>
</svg>
