<svg width="48" height="48" viewBox="0 0 48 48" fill="none" xmlns="http://www.w3.org/2000/svg">
<circle cx="24" cy="24" r="22" fill="none" stroke="white" stroke-width="4"/>
<path d="M33.158 13C34.7162 13 36 14.3034 36 15.8848V28.7068C36 30.2886 34.716 31.5917 33.158 31.5917H31.3618L31.9046 36.9408L31.9048 36.941C31.9312 37.2053 31.8488 37.4691 31.677 37.6695C31.5052 37.8701 31.2594 37.9895 30.9979 37.9993C30.7364 38.0094 30.4824 37.9092 30.2961 37.7225L24.2368 31.592H14.842C13.2838 31.592 12 30.2886 12 28.7072V15.8852C12 14.3034 13.284 13.0003 14.842 13.0003H33.158L33.158 13ZM33.158 14.9234H14.842C14.3008 14.9234 13.8946 15.3357 13.8946 15.8851V28.7071C13.8946 29.2565 14.3008 29.6688 14.842 29.6688H24.6316C24.8831 29.6681 25.1246 29.769 25.3028 29.9492L29.7535 34.4469L29.3786 30.7204H29.3784C29.3535 30.4518 29.4407 30.1851 29.6191 29.9852C29.7974 29.785 30.0502 29.6703 30.3159 29.6685H33.1579C33.6991 29.6685 34.1053 29.2562 34.1053 28.7068V15.8848C34.1053 15.3355 33.6991 14.9231 33.1579 14.9231L33.158 14.9234ZM30.316 20.6933C31.1881 20.6933 31.8949 21.4108 31.8949 22.2961C31.8949 23.1813 31.1881 23.8988 30.316 23.8988C29.4439 23.8988 28.737 23.1813 28.737 22.2961C28.737 21.4108 29.4439 20.6933 30.316 20.6933ZM23.99 20.6933C24.8621 20.6933 25.5689 21.4108 25.5689 22.2961C25.5689 23.1813 24.8621 23.8988 23.99 23.8988C23.1179 23.8988 22.411 23.1813 22.411 22.2961C22.411 21.4108 23.1179 20.6933 23.99 20.6933ZM17.6843 20.6933C18.5564 20.6933 19.2632 21.4108 19.2632 22.2961C19.2632 23.1813 18.5564 23.8988 17.6843 23.8988C16.8122 23.8988 16.1053 23.1813 16.1053 22.2961C16.1053 21.4108 16.8122 20.6933 17.6843 20.6933Z" fill="white"/>
</svg>
