<svg width="48" height="48" viewBox="0 0 48 48" fill="none" xmlns="http://www.w3.org/2000/svg">
<circle cx="24" cy="24" r="22" fill="none" stroke="white" stroke-width="4"/>
<path fill-rule="evenodd" clip-rule="evenodd" d="M34.2141 29.7131V24.9403C34.2141 23.9147 33.3826 23.0832 32.357 23.0832H24.9286V18.3105C26.7395 17.8429 27.9203 16.1016 27.6846 14.2462C27.4489 12.3908 25.8704 11 24 11C22.1296 11 20.5511 12.3908 20.3154 14.2462C20.0797 16.1016 21.2605 17.8429 23.0714 18.3105V23.0832H15.643C14.6174 23.0832 13.7859 23.9147 13.7859 24.9403V29.7131C11.975 30.1807 10.7942 31.9219 11.0299 33.7774C11.2656 35.6328 12.8441 37.0236 14.7145 37.0236C16.5848 37.0236 18.1634 35.6328 18.3991 33.7774C18.6348 31.9219 17.454 30.1807 15.643 29.7131V24.9403H32.357V29.7131C30.546 30.1807 29.3652 31.9219 29.6009 33.7774C29.8366 35.6328 31.4152 37.0236 33.2855 37.0236C35.1559 37.0236 36.7344 35.6328 36.9701 33.7774C37.2058 31.9219 36.025 30.1807 34.2141 29.7131ZM16.5718 33.2973C16.5718 34.323 15.7403 35.1544 14.7147 35.1544C13.689 35.1544 12.8576 34.323 12.8576 33.2973C12.8576 32.2717 13.689 31.4402 14.7147 31.4402C15.7403 31.4402 16.5718 32.2717 16.5718 33.2973ZM22.1431 14.7263C22.1431 13.7006 22.9746 12.8692 24.0002 12.8692C25.0259 12.8692 25.8573 13.7006 25.8573 14.7263C25.8573 15.7519 25.0259 16.5834 24.0002 16.5834C22.9746 16.5834 22.1431 15.7519 22.1431 14.7263ZM33.2858 35.1544C32.2601 35.1544 31.4287 34.323 31.4287 33.2973C31.4287 32.2717 32.2601 31.4402 33.2858 31.4402C34.3114 31.4402 35.1429 32.2717 35.1429 33.2973C35.1429 34.323 34.3114 35.1544 33.2858 35.1544Z" fill="white"/>
</svg>
